<?xml version="1.0" encoding="UTF-8" standalone="no"?>
<!-- Created with Inkscape (http://www.inkscape.org/) -->

<svg
   xmlns:dc="http://purl.org/dc/elements/1.1/"
   xmlns:cc="http://creativecommons.org/ns#"
   xmlns:rdf="http://www.w3.org/1999/02/22-rdf-syntax-ns#"
   xmlns:svg="http://www.w3.org/2000/svg"
   xmlns="http://www.w3.org/2000/svg"
   xmlns:sodipodi="http://sodipodi.sourceforge.net/DTD/sodipodi-0.dtd"
   xmlns:inkscape="http://www.inkscape.org/namespaces/inkscape"
   width="36.887405mm"
   height="22.167114mm"
   viewBox="0 0 36.887405 22.167114"
   version="1.1"
   id="svg838"
   sodipodi:docname="crabflat-grey.svg"
   inkscape:export-filename="C:\Users\John\Documents\Projects\crabby-computing\crabflat.png"
   inkscape:export-xdpi="19.719999"
   inkscape:export-ydpi="19.719999"
   inkscape:version="0.92.4 (5da689c313, 2019-01-14)">
  <defs
     id="defs832" />
  <sodipodi:namedview
     id="base"
     pagecolor="#ffffff"
     bordercolor="#666666"
     borderopacity="1.0"
     inkscape:pageopacity="0.0"
     inkscape:pageshadow="2"
     inkscape:zoom="2.8"
     inkscape:cx="120.54464"
     inkscape:cy="41.181376"
     inkscape:document-units="mm"
     inkscape:current-layer="layer1"
     showgrid="false"
     showborder="false"
     inkscape:window-width="1680"
     inkscape:window-height="946"
     inkscape:window-x="2552"
     inkscape:window-y="-8"
     inkscape:window-maximized="1"
     inkscape:pagecheckerboard="true"
     fit-margin-top="0"
     fit-margin-left="0"
     fit-margin-right="0"
     fit-margin-bottom="0" />
  <metadata
     id="metadata835">
    <rdf:RDF>
      <cc:Work
         rdf:about="">
        <dc:format>image/svg+xml</dc:format>
        <dc:type
           rdf:resource="http://purl.org/dc/dcmitype/StillImage" />
        <dc:title></dc:title>
      </cc:Work>
    </rdf:RDF>
  </metadata>
  <g
     inkscape:label="Layer 1"
     inkscape:groupmode="layer"
     id="layer1"
     transform="translate(-51.383793,-151.98461)">
    <rect
       style="fill:#4d4d4d;fill-opacity:0;fill-rule:evenodd;stroke:none;stroke-width:0.27112564;stroke-miterlimit:4;stroke-dasharray:none;stroke-opacity:1"
       id="rect5249"
       width="52.916668"
       height="31.750002"
       x="37.486298"
       y="132.89552" />
    <rect
       style="fill:none;fill-opacity:1;fill-rule:evenodd;stroke:none;stroke-width:1.32291663;stroke-miterlimit:4;stroke-dasharray:none;stroke-opacity:1"
       id="rect5247"
       width="3.7797618"
       height="18.898809"
       x="-188.9881"
       y="134.47025" />
    <path
       style="fill:#323334;fill-opacity:1;fill-rule:evenodd;stroke:none;stroke-width:0.09449405;stroke-miterlimit:4;stroke-dasharray:none;stroke-opacity:1"
       d="m 68.143966,174.13081 c -2.16005,-0.27047 -4.35641,-1.0462 -5.85864,-2.06921 l -0.51971,-0.35393 -1.13393,-0.0221 c -1.33808,-0.0261 -2.32313,-0.27923 -3.68128,-0.946 -0.46556,-0.22855 -0.84887,-0.40667 -0.85181,-0.39581 -0.003,0.0108 -0.20985,0.32599 -0.4598,0.7003 -0.6268,0.93866 -2.06266,2.29335 -2.8324,2.6723 -0.743494,0.36602 -1.184938,0.36351 -1.361944,-0.008 -0.460396,-0.96563 1.791434,-4.02501 3.659334,-4.97162 0.469,-0.23768 0.60732,-0.26202 1.41741,-0.24945 0.84058,0.013 1.24026,0.0956 2.77335,0.57284 0.16425,0.0511 0.16611,0.0377 0.031,-0.22363 -0.41055,-0.7939 -0.57911,-1.57705 -0.57646,-2.67825 0.002,-0.93671 0.0386,-1.19101 0.26345,-1.84263 0.14347,-0.41577 0.42421,-1.01769 0.62387,-1.3376 l 0.36302,-0.58164 -0.39257,-0.10031 c -0.5289,-0.13515 -1.48389,-0.71432 -2.01166,-1.22002 l -0.43149,-0.41344 -0.14927,0.22011 c -0.27888,0.41122 -0.9044,0.93114 -1.43198,1.19025 -0.4665,0.2291 -0.63265,0.25827 -1.47085,0.25826 -0.84233,-2e-5 -1.00138,-0.0283 -1.46466,-0.26025 -0.28584,-0.14312 -0.668542,-0.38757 -0.850443,-0.54321 l -0.330729,-0.28299 0.377976,-0.34934 c 0.207886,-0.19213 0.790156,-0.73611 1.293926,-1.20885 l 0.91596,-0.85951 -1.1764,-1.24046 -1.176398,-1.24045 0.529386,-0.33113 c 0.666612,-0.41697 1.301492,-0.57107 2.113392,-0.51298 1.20538,0.0862 2.34249,0.84749 2.89265,1.93651 0.25042,0.49571 0.27586,0.63398 0.27646,1.50259 l 5.3e-4,0.95664 0.43909,0.11265 c 0.56374,0.14463 1.78943,0.94846 2.17188,1.42436 l 0.29625,0.36866 0.62526,-0.55041 c 0.82313,-0.72459 1.58256,-1.23015 2.55182,-1.69876 0.43595,-0.21077 0.81115,-0.40174 0.83379,-0.42438 0.0226,-0.0226 -0.0195,-0.16205 -0.0937,-0.3098 -0.22316,-0.44437 -0.35812,-1.14251 -0.36193,-1.87224 l -0.004,-0.68959 -0.34858,-0.0557 c -0.19172,-0.0307 -0.54334,-0.17926 -0.7814,-0.33022 -1.3069,-0.82882 -1.2736,-2.78247 0.0608,-3.56447 0.89029,-0.52174 1.87442,-0.39199 2.6106,0.3442 1.01246,1.01246 0.83612,2.416 -0.41747,3.32267 -0.15714,0.11365 -0.15533,0.147 0.0347,0.63963 0.12342,0.31997 0.21941,0.83748 0.24976,1.34653 0.0271,0.45476 0.0682,0.82683 0.0913,0.82683 0.0231,0 0.36802,-0.0826 0.76647,-0.18362 2.19482,-0.55629 5.40853,-0.4981 7.62252,0.13802 0.17641,0.0507 0.19023,0.005 0.20775,-0.68238 0.0106,-0.41651 0.10014,-0.99795 0.206,-1.33785 l 0.18723,-0.60117 -0.49323,-0.48551 c -0.90226,-0.88814 -0.96985,-2.03201 -0.17234,-2.91657 0.68484,-0.75959 1.64142,-0.94264 2.55277,-0.48849 1.78471,0.88936 1.51682,3.39679 -0.42002,3.93126 l -0.38868,0.10725 -0.0542,0.85793 c -0.0473,0.7484 -0.17009,1.33478 -0.38838,1.85502 -0.0471,0.11224 0.11385,0.22875 0.68581,0.49648 0.98261,0.45996 2.01199,1.13854 2.70348,1.78217 l 0.55888,0.52021 0.52579,-0.53349 c 0.55681,-0.56495 1.3779,-1.08465 2.02503,-1.28171 0.24822,-0.0756 0.37733,-0.16551 0.35413,-0.24665 -0.0201,-0.0702 -0.0365,-0.44662 -0.0364,-0.83641 1.9e-4,-1.31447 0.65534,-2.39368 1.83684,-3.0258 0.52584,-0.28134 0.70161,-0.32465 1.44888,-0.35704 0.96653,-0.0419 1.65407,0.15119 2.1991,0.6176 l 0.30517,0.26115 -1.14761,1.2101 c -0.63119,0.66556 -1.1096,1.24345 -1.06315,1.28422 0.0465,0.0408 0.62893,0.5758 1.29439,1.18898 l 1.20992,1.11486 -0.26408,0.27564 c -0.14525,0.15161 -0.53999,0.41147 -0.8772,0.57749 -0.55251,0.27199 -0.6976,0.30183 -1.46755,0.30183 -0.77429,0 -0.91336,-0.029 -1.48287,-0.30938 -0.41472,-0.20417 -0.79208,-0.48842 -1.10959,-0.83583 l -0.48113,-0.52644 -0.56354,0.52174 c -0.48367,0.44779 -1.12184,0.82682 -1.95562,1.16148 -0.20422,0.082 -0.20231,0.09 0.16692,0.69714 1.02318,1.68256 1.17724,3.80085 0.40454,5.56245 -0.19669,0.44841 -0.20332,0.50075 -0.0574,0.45277 1.22903,-0.40408 1.89252,-0.55507 2.64635,-0.60221 0.87065,-0.0545 0.87854,-0.053 1.60639,0.30678 1.24169,0.61368 3.05839,2.58893 3.53517,3.8437 0.23886,0.62865 0.22985,1.17167 -0.0217,1.30629 -0.68638,0.36734 -2.86891,-1.16498 -4.03582,-2.83347 -0.23793,-0.34019 -0.46464,-0.65581 -0.5038,-0.70138 -0.0392,-0.0456 -0.21802,0.008 -0.39744,0.11877 -1.09918,0.67933 -2.86446,1.17462 -4.22332,1.18496 l -0.99219,0.008 -0.61421,0.41026 c -1.24958,0.83467 -2.74427,1.43783 -4.48847,1.81128 -0.71557,0.15321 -1.35781,0.20985 -2.64583,0.23331 -0.93549,0.017 -1.84972,0.0123 -2.03162,-0.0104 z"
       id="path925"
       inkscape:connector-curvature="0" />
  </g>
</svg>
